<mxfile host="app.diagrams.net" modified="2024-03-10T09:33:44.517Z" agent="Mozilla/5.0 (Macintosh; Intel Mac OS X 10_15_7) AppleWebKit/537.36 (KHTML, like Gecko) Chrome/120.0.0.0 Whale/3.24.223.18 Safari/537.36" etag="8r3h8W4HywBMe9xi6ev8" version="24.0.0" type="github">
  <diagram name="페이지-1" id="Xa38Sybxr32NkZHonVsy">
    <mxGraphModel dx="524" dy="997" grid="1" gridSize="10" guides="1" tooltips="1" connect="1" arrows="1" fold="1" page="1" pageScale="1" pageWidth="1169" pageHeight="827" math="0" shadow="0">
      <root>
        <mxCell id="0" />
        <mxCell id="1" parent="0" />
        <mxCell id="DOJyUe9yedu12fU6zfcb-9" style="edgeStyle=orthogonalEdgeStyle;rounded=0;orthogonalLoop=1;jettySize=auto;html=1;entryX=0;entryY=0.5;entryDx=0;entryDy=0;" parent="1" source="DOJyUe9yedu12fU6zfcb-2" target="DOJyUe9yedu12fU6zfcb-3" edge="1">
          <mxGeometry relative="1" as="geometry" />
        </mxCell>
        <mxCell id="DOJyUe9yedu12fU6zfcb-2" value="Upstream Service" style="rounded=1;whiteSpace=wrap;html=1;" parent="1" vertex="1">
          <mxGeometry x="40" y="200" width="120" height="60" as="geometry" />
        </mxCell>
        <mxCell id="DOJyUe9yedu12fU6zfcb-10" style="rounded=0;orthogonalLoop=1;jettySize=auto;html=1;entryX=0;entryY=0.5;entryDx=0;entryDy=0;" parent="1" source="DOJyUe9yedu12fU6zfcb-3" target="DOJyUe9yedu12fU6zfcb-4" edge="1">
          <mxGeometry relative="1" as="geometry" />
        </mxCell>
        <mxCell id="DOJyUe9yedu12fU6zfcb-11" style="rounded=0;orthogonalLoop=1;jettySize=auto;html=1;entryX=0;entryY=0.5;entryDx=0;entryDy=0;" parent="1" source="DOJyUe9yedu12fU6zfcb-3" target="DOJyUe9yedu12fU6zfcb-6" edge="1">
          <mxGeometry relative="1" as="geometry" />
        </mxCell>
        <mxCell id="DOJyUe9yedu12fU6zfcb-3" value="Inblound Topic" style="rounded=1;whiteSpace=wrap;html=1;" parent="1" vertex="1">
          <mxGeometry x="200" y="200" width="120" height="60" as="geometry" />
        </mxCell>
        <mxCell id="23JzstFYRZB8To4MGrBw-4" style="edgeStyle=orthogonalEdgeStyle;rounded=0;orthogonalLoop=1;jettySize=auto;html=1;exitX=0.25;exitY=1;exitDx=0;exitDy=0;entryX=0.25;entryY=0;entryDx=0;entryDy=0;" edge="1" parent="1" source="DOJyUe9yedu12fU6zfcb-4" target="DOJyUe9yedu12fU6zfcb-5">
          <mxGeometry relative="1" as="geometry" />
        </mxCell>
        <mxCell id="23JzstFYRZB8To4MGrBw-5" style="rounded=0;orthogonalLoop=1;jettySize=auto;html=1;entryX=0;entryY=0.25;entryDx=0;entryDy=0;exitX=1;exitY=0.75;exitDx=0;exitDy=0;" edge="1" parent="1" source="DOJyUe9yedu12fU6zfcb-4" target="DOJyUe9yedu12fU6zfcb-7">
          <mxGeometry relative="1" as="geometry" />
        </mxCell>
        <mxCell id="DOJyUe9yedu12fU6zfcb-4" value="First Service" style="rounded=1;whiteSpace=wrap;html=1;" parent="1" vertex="1">
          <mxGeometry x="400" y="80" width="120" height="60" as="geometry" />
        </mxCell>
        <mxCell id="23JzstFYRZB8To4MGrBw-2" style="edgeStyle=orthogonalEdgeStyle;rounded=0;orthogonalLoop=1;jettySize=auto;html=1;exitX=0.75;exitY=1;exitDx=0;exitDy=0;entryX=0.75;entryY=0;entryDx=0;entryDy=0;dashed=1;" edge="1" parent="1" source="DOJyUe9yedu12fU6zfcb-5" target="DOJyUe9yedu12fU6zfcb-6">
          <mxGeometry relative="1" as="geometry" />
        </mxCell>
        <mxCell id="23JzstFYRZB8To4MGrBw-3" style="edgeStyle=orthogonalEdgeStyle;rounded=0;orthogonalLoop=1;jettySize=auto;html=1;exitX=0.75;exitY=0;exitDx=0;exitDy=0;entryX=0.75;entryY=1;entryDx=0;entryDy=0;dashed=1;" edge="1" parent="1" source="DOJyUe9yedu12fU6zfcb-5" target="DOJyUe9yedu12fU6zfcb-4">
          <mxGeometry relative="1" as="geometry" />
        </mxCell>
        <mxCell id="DOJyUe9yedu12fU6zfcb-5" value="First Service" style="rounded=1;whiteSpace=wrap;html=1;" parent="1" vertex="1">
          <mxGeometry x="400" y="200" width="120" height="60" as="geometry" />
        </mxCell>
        <mxCell id="23JzstFYRZB8To4MGrBw-1" style="edgeStyle=orthogonalEdgeStyle;rounded=0;orthogonalLoop=1;jettySize=auto;html=1;exitX=0.25;exitY=0;exitDx=0;exitDy=0;entryX=0.25;entryY=1;entryDx=0;entryDy=0;" edge="1" parent="1" source="DOJyUe9yedu12fU6zfcb-6" target="DOJyUe9yedu12fU6zfcb-5">
          <mxGeometry relative="1" as="geometry" />
        </mxCell>
        <mxCell id="23JzstFYRZB8To4MGrBw-6" style="rounded=0;orthogonalLoop=1;jettySize=auto;html=1;exitX=1;exitY=0.25;exitDx=0;exitDy=0;entryX=0;entryY=0.75;entryDx=0;entryDy=0;" edge="1" parent="1" source="DOJyUe9yedu12fU6zfcb-6" target="DOJyUe9yedu12fU6zfcb-7">
          <mxGeometry relative="1" as="geometry" />
        </mxCell>
        <mxCell id="DOJyUe9yedu12fU6zfcb-6" value="Second Service" style="rounded=1;whiteSpace=wrap;html=1;" parent="1" vertex="1">
          <mxGeometry x="400" y="320" width="120" height="60" as="geometry" />
        </mxCell>
        <mxCell id="23JzstFYRZB8To4MGrBw-7" style="edgeStyle=orthogonalEdgeStyle;rounded=0;orthogonalLoop=1;jettySize=auto;html=1;exitX=1;exitY=0.25;exitDx=0;exitDy=0;entryX=0;entryY=0.25;entryDx=0;entryDy=0;" edge="1" parent="1" source="DOJyUe9yedu12fU6zfcb-7" target="DOJyUe9yedu12fU6zfcb-8">
          <mxGeometry relative="1" as="geometry" />
        </mxCell>
        <mxCell id="23JzstFYRZB8To4MGrBw-8" style="edgeStyle=orthogonalEdgeStyle;rounded=0;orthogonalLoop=1;jettySize=auto;html=1;exitX=1;exitY=0.75;exitDx=0;exitDy=0;entryX=0;entryY=0.75;entryDx=0;entryDy=0;" edge="1" parent="1" source="DOJyUe9yedu12fU6zfcb-7" target="DOJyUe9yedu12fU6zfcb-8">
          <mxGeometry relative="1" as="geometry" />
        </mxCell>
        <mxCell id="DOJyUe9yedu12fU6zfcb-7" value="Outbound Topic" style="rounded=1;whiteSpace=wrap;html=1;" parent="1" vertex="1">
          <mxGeometry x="600" y="200" width="120" height="60" as="geometry" />
        </mxCell>
        <mxCell id="DOJyUe9yedu12fU6zfcb-8" value="Downstream Service" style="rounded=1;whiteSpace=wrap;html=1;" parent="1" vertex="1">
          <mxGeometry x="760" y="200" width="120" height="60" as="geometry" />
        </mxCell>
        <mxCell id="DOJyUe9yedu12fU6zfcb-16" style="edgeStyle=orthogonalEdgeStyle;rounded=0;orthogonalLoop=1;jettySize=auto;html=1;entryX=1;entryY=0.25;entryDx=0;entryDy=0;" parent="1" source="DOJyUe9yedu12fU6zfcb-4" target="DOJyUe9yedu12fU6zfcb-4" edge="1">
          <mxGeometry relative="1" as="geometry" />
        </mxCell>
        <mxCell id="23JzstFYRZB8To4MGrBw-9" value="&lt;b&gt;1-1&lt;/b&gt;" style="text;html=1;align=center;verticalAlign=middle;whiteSpace=wrap;rounded=0;fontColor=#856794;" vertex="1" parent="1">
          <mxGeometry x="300" y="130" width="60" height="30" as="geometry" />
        </mxCell>
        <mxCell id="23JzstFYRZB8To4MGrBw-11" value="&lt;b&gt;1-2&lt;/b&gt;" style="text;html=1;align=center;verticalAlign=middle;whiteSpace=wrap;rounded=0;fontColor=#856794;" vertex="1" parent="1">
          <mxGeometry x="430" y="160" width="60" height="30" as="geometry" />
        </mxCell>
        <mxCell id="23JzstFYRZB8To4MGrBw-12" value="&lt;b&gt;1-3&lt;/b&gt;" style="text;html=1;align=center;verticalAlign=middle;whiteSpace=wrap;rounded=0;fontColor=#856794;" vertex="1" parent="1">
          <mxGeometry x="480" y="30" width="60" height="30" as="geometry" />
        </mxCell>
        <mxCell id="23JzstFYRZB8To4MGrBw-13" value="&lt;b&gt;1-4&lt;/b&gt;" style="text;html=1;align=center;verticalAlign=middle;whiteSpace=wrap;rounded=0;fontColor=#856794;" vertex="1" parent="1">
          <mxGeometry x="540" y="130" width="60" height="30" as="geometry" />
        </mxCell>
        <mxCell id="23JzstFYRZB8To4MGrBw-14" value="&lt;b&gt;&lt;font color=&quot;#ea6b66&quot;&gt;2-1&lt;/font&gt;&lt;/b&gt;" style="text;html=1;align=center;verticalAlign=middle;whiteSpace=wrap;rounded=0;fontColor=#4747B3;" vertex="1" parent="1">
          <mxGeometry x="300" y="300" width="60" height="30" as="geometry" />
        </mxCell>
        <mxCell id="23JzstFYRZB8To4MGrBw-15" value="&lt;b&gt;&lt;font color=&quot;#ea6b66&quot;&gt;2-2&lt;/font&gt;&lt;/b&gt;" style="text;html=1;align=center;verticalAlign=middle;whiteSpace=wrap;rounded=0;fontColor=#4747B3;" vertex="1" parent="1">
          <mxGeometry x="430" y="280" width="60" height="30" as="geometry" />
        </mxCell>
        <mxCell id="23JzstFYRZB8To4MGrBw-16" value="&lt;b&gt;&lt;font color=&quot;#ea6b66&quot;&gt;2-3&lt;/font&gt;&lt;/b&gt;" style="text;html=1;align=center;verticalAlign=middle;whiteSpace=wrap;rounded=0;fontColor=#4747B3;" vertex="1" parent="1">
          <mxGeometry x="555" y="290" width="60" height="30" as="geometry" />
        </mxCell>
      </root>
    </mxGraphModel>
  </diagram>
</mxfile>
